<?xml version="1.0" encoding="UTF-8"?>
<svg width="752pt" height="752pt" version="1.1" viewBox="0 0 752 752" xmlns="http://www.w3.org/2000/svg">
 <defs>
  <clipPath id="a">
   <path d="m198 139.21h356v473.58h-356z"/>
  </clipPath>
 </defs>
 <g clip-path="url(#a)">
  <path d="m420.4 287.2v29.598h59.199v-29.598h-14.801v-29.598h59.199v103.6h29.598v-118.39c0-3.9258-1.5586-7.6914-4.3359-10.465-2.7734-2.7773-6.5391-4.3359-10.465-4.3359h-73.996v-59.199c0-7.8477-3.1172-15.379-8.668-20.93-5.5508-5.5508-13.078-8.668-20.93-8.668h-118.39c-7.8516 0-15.379 3.1172-20.93 8.668-5.5508 5.5508-8.6719 13.082-8.6719 20.93v59.199h-73.996c-3.9258 0-7.6875 1.5586-10.465 4.3359-2.7734 2.7734-4.332 6.5391-4.332 10.465v325.59c0 11.773 4.6758 23.066 13.004 31.395 8.3242 8.3242 19.617 13.004 31.395 13.004h147.99v-29.602h-147.99c-3.9258 0-7.6914-1.5586-10.465-4.332-2.7773-2.7773-4.3359-6.5391-4.3359-10.465v-310.79h59.199v29.598h-14.801v29.598h59.199l-0.003907-29.598h-14.797v-29.598h118.39v29.598zm-103.59-59.195v-59.199h118.39v59.199z"/>
 </g>
 <path d="m564.1 445.71-21.016-21.016-48.688 48.84-48.691-48.84-21.016 21.016 48.84 48.691-48.84 48.688 21.016 21.016 48.691-48.836 48.688 48.836 21.016-21.016-48.836-48.688z"/>
</svg>
